<mxfile host="Electron" modified="2024-01-26T19:05:06.955Z" agent="Mozilla/5.0 (Macintosh; Intel Mac OS X 10_15_7) AppleWebKit/537.36 (KHTML, like Gecko) draw.io/22.1.21 Chrome/120.0.6099.109 Electron/28.1.0 Safari/537.36" etag="6KDn3ATMnw_RHrx1RG9Q" version="22.1.21" type="device" pages="2">
  <diagram name="Cold Plate" id="AwC3xVd8mV8jzIeykbcd">
    <mxGraphModel dx="-2815" dy="1786" grid="1" gridSize="10" guides="1" tooltips="1" connect="1" arrows="1" fold="1" page="1" pageScale="1" pageWidth="850" pageHeight="1100" math="1" shadow="0">
      <root>
        <mxCell id="0" />
        <mxCell id="1" parent="0" />
        <mxCell id="6WotAE15Ne2qhox48cxm-2" value="&lt;font style=&quot;font-size: 14px;&quot;&gt;$$Tr_{heat}$$&lt;/font&gt;" style="ellipse;whiteSpace=wrap;html=1;aspect=fixed;fillColor=#A9C4EB;strokeWidth=2;" parent="1" vertex="1">
          <mxGeometry x="4440" y="-80" width="80" height="80" as="geometry" />
        </mxCell>
        <mxCell id="6WotAE15Ne2qhox48cxm-16" value="&lt;div style=&quot;text-align: center;&quot;&gt;&lt;font style=&quot;font-size: 48px;&quot;&gt;Cold Plates&lt;/font&gt;&lt;/div&gt;" style="text;whiteSpace=wrap;html=1;fillColor=none;" parent="1" vertex="1">
          <mxGeometry x="3955" y="-240" width="300" height="40" as="geometry" />
        </mxCell>
        <mxCell id="6WotAE15Ne2qhox48cxm-21" value="&lt;font style=&quot;font-size: 14px;&quot;&gt;Plumbing.&lt;/font&gt;" style="ellipse;whiteSpace=wrap;html=1;aspect=fixed;fillColor=#CCCCCC;strokeColor=#666666;strokeWidth=2;fontColor=#333333;" parent="1" vertex="1">
          <mxGeometry x="4430" y="65" width="80" height="80" as="geometry" />
        </mxCell>
        <mxCell id="6WotAE15Ne2qhox48cxm-26" value="&lt;font style=&quot;font-size: 14px;&quot;&gt;$$C_{heat}$$&lt;/font&gt;" style="ellipse;whiteSpace=wrap;html=1;aspect=fixed;fillColor=#A9C4EB;strokeWidth=2;" parent="1" vertex="1">
          <mxGeometry x="4320" y="-40" width="80" height="80" as="geometry" />
        </mxCell>
        <mxCell id="6WotAE15Ne2qhox48cxm-28" value="&lt;font style=&quot;font-size: 14px;&quot;&gt;Hardware&lt;/font&gt;" style="ellipse;whiteSpace=wrap;html=1;aspect=fixed;fillColor=#CCCCCC;strokeColor=#666666;strokeWidth=2;fontColor=#333333;" parent="1" vertex="1">
          <mxGeometry x="4300" y="65" width="80" height="80" as="geometry" />
        </mxCell>
        <mxCell id="6WotAE15Ne2qhox48cxm-32" value="" style="rounded=0;whiteSpace=wrap;html=1;" parent="1" vertex="1">
          <mxGeometry x="3960" y="-140" width="170" height="100" as="geometry" />
        </mxCell>
        <mxCell id="6WotAE15Ne2qhox48cxm-35" value="" style="curved=1;endArrow=classic;html=1;rounded=0;" parent="1" edge="1">
          <mxGeometry width="50" height="50" relative="1" as="geometry">
            <mxPoint x="3970" y="-25" as="sourcePoint" />
            <mxPoint x="4120" y="-175" as="targetPoint" />
            <Array as="points">
              <mxPoint x="3970" y="-75" />
              <mxPoint x="3990" y="-135" />
              <mxPoint x="4030" y="-25" />
              <mxPoint x="4060" y="-155" />
              <mxPoint x="4100" y="-5" />
            </Array>
          </mxGeometry>
        </mxCell>
        <mxCell id="6WotAE15Ne2qhox48cxm-36" value="" style="endArrow=classic;html=1;rounded=0;strokeWidth=2;" parent="1" source="6WotAE15Ne2qhox48cxm-28" target="6WotAE15Ne2qhox48cxm-26" edge="1">
          <mxGeometry width="50" height="50" relative="1" as="geometry">
            <mxPoint x="4090" y="-50" as="sourcePoint" />
            <mxPoint x="4140" y="-100" as="targetPoint" />
          </mxGeometry>
        </mxCell>
        <mxCell id="6WotAE15Ne2qhox48cxm-38" value="" style="endArrow=classic;html=1;rounded=0;strokeWidth=2;" parent="1" source="6WotAE15Ne2qhox48cxm-21" target="6WotAE15Ne2qhox48cxm-2" edge="1">
          <mxGeometry width="50" height="50" relative="1" as="geometry">
            <mxPoint x="4378" y="87" as="sourcePoint" />
            <mxPoint x="4423.697554612435" y="53.365722788242465" as="targetPoint" />
          </mxGeometry>
        </mxCell>
        <mxCell id="6WotAE15Ne2qhox48cxm-41" value="" style="endArrow=classic;html=1;rounded=0;strokeWidth=2;" parent="1" source="6WotAE15Ne2qhox48cxm-26" target="6WotAE15Ne2qhox48cxm-2" edge="1">
          <mxGeometry width="50" height="50" relative="1" as="geometry">
            <mxPoint x="4415" y="42" as="sourcePoint" />
            <mxPoint x="4377" as="targetPoint" />
          </mxGeometry>
        </mxCell>
        <mxCell id="6WotAE15Ne2qhox48cxm-42" value="&lt;font style=&quot;font-size: 14px;&quot;&gt;$$D$$&lt;/font&gt;" style="ellipse;whiteSpace=wrap;html=1;aspect=fixed;fillColor=#f8cecc;strokeColor=#b85450;strokeWidth=2;" parent="1" vertex="1">
          <mxGeometry x="4190" y="100" width="80" height="80" as="geometry" />
        </mxCell>
        <mxCell id="6WotAE15Ne2qhox48cxm-46" value="&lt;font style=&quot;font-size: 14px;&quot;&gt;$$A$$&lt;/font&gt;" style="ellipse;whiteSpace=wrap;html=1;aspect=fixed;fillColor=#f8cecc;strokeColor=#b85450;strokeWidth=2;" parent="1" vertex="1">
          <mxGeometry x="4205" y="-20" width="80" height="80" as="geometry" />
        </mxCell>
        <mxCell id="6WotAE15Ne2qhox48cxm-48" value="" style="endArrow=classic;html=1;rounded=0;strokeWidth=2;" parent="1" source="6WotAE15Ne2qhox48cxm-42" target="6WotAE15Ne2qhox48cxm-28" edge="1">
          <mxGeometry width="50" height="50" relative="1" as="geometry">
            <mxPoint x="4383" y="92" as="sourcePoint" />
            <mxPoint x="4426" y="63" as="targetPoint" />
          </mxGeometry>
        </mxCell>
        <mxCell id="6WotAE15Ne2qhox48cxm-49" value="" style="endArrow=classic;html=1;rounded=0;strokeWidth=2;" parent="1" source="6WotAE15Ne2qhox48cxm-46" target="6WotAE15Ne2qhox48cxm-28" edge="1">
          <mxGeometry width="50" height="50" relative="1" as="geometry">
            <mxPoint x="4278" y="138" as="sourcePoint" />
            <mxPoint x="4419.178005064048" y="54.93196961570743" as="targetPoint" />
          </mxGeometry>
        </mxCell>
        <mxCell id="6WotAE15Ne2qhox48cxm-50" value="&lt;font style=&quot;font-size: 12px;&quot;&gt;Meteorite Impact&lt;/font&gt;" style="ellipse;whiteSpace=wrap;html=1;aspect=fixed;strokeWidth=2;strokeColor=#b85450;fillColor=#ffffff;dashed=1;" parent="1" vertex="1">
          <mxGeometry x="4130" y="180" width="50" height="50" as="geometry" />
        </mxCell>
        <mxCell id="6WotAE15Ne2qhox48cxm-51" value="Interact" style="ellipse;whiteSpace=wrap;html=1;aspect=fixed;strokeWidth=2;strokeColor=#b85450;fillColor=#ffffff;dashed=1;" parent="1" vertex="1">
          <mxGeometry x="4205" y="230" width="50" height="50" as="geometry" />
        </mxCell>
        <mxCell id="6WotAE15Ne2qhox48cxm-52" value="&lt;font style=&quot;font-size: 12px;&quot;&gt;Dust&lt;/font&gt;" style="ellipse;whiteSpace=wrap;html=1;aspect=fixed;strokeWidth=2;strokeColor=#b85450;fillColor=#ffffff;dashed=1;" parent="1" vertex="1">
          <mxGeometry x="4110" y="90" width="50" height="50" as="geometry" />
        </mxCell>
        <mxCell id="6WotAE15Ne2qhox48cxm-54" value="" style="endArrow=classic;html=1;rounded=0;strokeColor=#B85450;dashed=1;dashPattern=8 8;strokeWidth=2;" parent="1" source="6WotAE15Ne2qhox48cxm-51" target="6WotAE15Ne2qhox48cxm-42" edge="1">
          <mxGeometry width="50" height="50" relative="1" as="geometry">
            <mxPoint x="4319" y="290" as="sourcePoint" />
            <mxPoint x="4324" y="260" as="targetPoint" />
          </mxGeometry>
        </mxCell>
        <mxCell id="6WotAE15Ne2qhox48cxm-59" value="" style="endArrow=classic;html=1;rounded=0;strokeColor=#B85450;dashed=1;dashPattern=8 8;strokeWidth=2;" parent="1" source="6WotAE15Ne2qhox48cxm-50" target="6WotAE15Ne2qhox48cxm-42" edge="1">
          <mxGeometry width="50" height="50" relative="1" as="geometry">
            <mxPoint x="4196" y="292" as="sourcePoint" />
            <mxPoint x="4219" y="278" as="targetPoint" />
          </mxGeometry>
        </mxCell>
        <mxCell id="6WotAE15Ne2qhox48cxm-60" value="" style="endArrow=classic;html=1;rounded=0;strokeColor=#B85450;dashed=1;dashPattern=8 8;strokeWidth=2;" parent="1" source="6WotAE15Ne2qhox48cxm-52" target="6WotAE15Ne2qhox48cxm-42" edge="1">
          <mxGeometry width="50" height="50" relative="1" as="geometry">
            <mxPoint x="4184" y="199" as="sourcePoint" />
            <mxPoint x="4210" y="176" as="targetPoint" />
          </mxGeometry>
        </mxCell>
        <mxCell id="hpLO0xRprknL59ceCXoo-1" value="" style="endArrow=classic;html=1;rounded=0;strokeWidth=2;" parent="1" source="6WotAE15Ne2qhox48cxm-28" target="6WotAE15Ne2qhox48cxm-2" edge="1">
          <mxGeometry width="50" height="50" relative="1" as="geometry">
            <mxPoint x="4357" y="76" as="sourcePoint" />
            <mxPoint x="4362" y="49" as="targetPoint" />
          </mxGeometry>
        </mxCell>
      </root>
    </mxGraphModel>
  </diagram>
  <diagram id="_PbUMfetWyJ_BUN_kohy" name="Cold Plates - C">
    <mxGraphModel dx="-2134" dy="1784" grid="1" gridSize="10" guides="1" tooltips="1" connect="1" arrows="1" fold="1" page="1" pageScale="1" pageWidth="850" pageHeight="1100" math="1" shadow="0">
      <root>
        <mxCell id="0" />
        <mxCell id="1" parent="0" />
        <mxCell id="gSLX7bVf2hEw5dxdex8d-2" value="" style="ellipse;whiteSpace=wrap;html=1;strokeWidth=3;" parent="1" vertex="1">
          <mxGeometry x="3740" y="-30" width="500" height="470" as="geometry" />
        </mxCell>
        <mxCell id="BABA2aiOpULebvutTsmJ-1" value="&lt;font style=&quot;font-size: 14px;&quot;&gt;$$Tr_{heat}$$&lt;/font&gt;" style="ellipse;whiteSpace=wrap;html=1;aspect=fixed;fillColor=#A9C4EB;strokeWidth=2;" parent="1" vertex="1">
          <mxGeometry x="4100" y="40" width="80" height="80" as="geometry" />
        </mxCell>
        <mxCell id="BABA2aiOpULebvutTsmJ-2" value="&lt;font style=&quot;font-size: 14px;&quot;&gt;Plumbing.&lt;/font&gt;" style="ellipse;whiteSpace=wrap;html=1;aspect=fixed;fillColor=#CCCCCC;strokeColor=#666666;strokeWidth=2;fontColor=#333333;" parent="1" vertex="1">
          <mxGeometry x="4090" y="185" width="80" height="80" as="geometry" />
        </mxCell>
        <mxCell id="BABA2aiOpULebvutTsmJ-3" value="&lt;font style=&quot;font-size: 14px;&quot;&gt;$$C_{heat}$$&lt;/font&gt;" style="ellipse;whiteSpace=wrap;html=1;aspect=fixed;fillColor=#A9C4EB;strokeWidth=2;" parent="1" vertex="1">
          <mxGeometry x="3980" y="80" width="80" height="80" as="geometry" />
        </mxCell>
        <mxCell id="BABA2aiOpULebvutTsmJ-4" value="&lt;font style=&quot;font-size: 14px;&quot;&gt;Hardware&lt;/font&gt;" style="ellipse;whiteSpace=wrap;html=1;aspect=fixed;fillColor=#CCCCCC;strokeColor=#666666;strokeWidth=2;fontColor=#333333;" parent="1" vertex="1">
          <mxGeometry x="3960" y="185" width="80" height="80" as="geometry" />
        </mxCell>
        <mxCell id="BABA2aiOpULebvutTsmJ-5" value="" style="endArrow=classic;html=1;rounded=0;strokeWidth=2;" parent="1" source="BABA2aiOpULebvutTsmJ-4" target="BABA2aiOpULebvutTsmJ-3" edge="1">
          <mxGeometry width="50" height="50" relative="1" as="geometry">
            <mxPoint x="3750" y="70" as="sourcePoint" />
            <mxPoint x="3800" y="20" as="targetPoint" />
          </mxGeometry>
        </mxCell>
        <mxCell id="BABA2aiOpULebvutTsmJ-6" value="" style="endArrow=classic;html=1;rounded=0;strokeWidth=2;" parent="1" source="BABA2aiOpULebvutTsmJ-2" target="BABA2aiOpULebvutTsmJ-1" edge="1">
          <mxGeometry width="50" height="50" relative="1" as="geometry">
            <mxPoint x="4038" y="207" as="sourcePoint" />
            <mxPoint x="4083.697554612435" y="173.36572278824246" as="targetPoint" />
          </mxGeometry>
        </mxCell>
        <mxCell id="BABA2aiOpULebvutTsmJ-7" value="" style="endArrow=classic;html=1;rounded=0;strokeWidth=2;" parent="1" source="BABA2aiOpULebvutTsmJ-2" target="BABA2aiOpULebvutTsmJ-3" edge="1">
          <mxGeometry width="50" height="50" relative="1" as="geometry">
            <mxPoint x="4076.125674896166" y="166.83936636266208" as="sourcePoint" />
            <mxPoint x="4082" y="169" as="targetPoint" />
          </mxGeometry>
        </mxCell>
        <mxCell id="BABA2aiOpULebvutTsmJ-8" value="" style="endArrow=classic;html=1;rounded=0;strokeWidth=2;" parent="1" source="BABA2aiOpULebvutTsmJ-3" target="BABA2aiOpULebvutTsmJ-1" edge="1">
          <mxGeometry width="50" height="50" relative="1" as="geometry">
            <mxPoint x="4075" y="162" as="sourcePoint" />
            <mxPoint x="4037" y="120" as="targetPoint" />
          </mxGeometry>
        </mxCell>
        <mxCell id="BABA2aiOpULebvutTsmJ-9" value="&lt;font style=&quot;font-size: 14px;&quot;&gt;$$D$$&lt;/font&gt;" style="ellipse;whiteSpace=wrap;html=1;aspect=fixed;fillColor=#f8cecc;strokeColor=#b85450;strokeWidth=2;" parent="1" vertex="1">
          <mxGeometry x="3850" y="220" width="80" height="80" as="geometry" />
        </mxCell>
        <mxCell id="BABA2aiOpULebvutTsmJ-10" value="&lt;font style=&quot;font-size: 14px;&quot;&gt;$$A$$&lt;/font&gt;" style="ellipse;whiteSpace=wrap;html=1;aspect=fixed;fillColor=#f8cecc;strokeColor=#b85450;strokeWidth=2;" parent="1" vertex="1">
          <mxGeometry x="3865" y="100" width="80" height="80" as="geometry" />
        </mxCell>
        <mxCell id="BABA2aiOpULebvutTsmJ-11" value="" style="endArrow=classic;html=1;rounded=0;strokeWidth=2;" parent="1" source="BABA2aiOpULebvutTsmJ-9" target="BABA2aiOpULebvutTsmJ-4" edge="1">
          <mxGeometry width="50" height="50" relative="1" as="geometry">
            <mxPoint x="4043" y="212" as="sourcePoint" />
            <mxPoint x="4086" y="183" as="targetPoint" />
          </mxGeometry>
        </mxCell>
        <mxCell id="BABA2aiOpULebvutTsmJ-12" value="" style="endArrow=classic;html=1;rounded=0;strokeWidth=2;" parent="1" source="BABA2aiOpULebvutTsmJ-10" target="BABA2aiOpULebvutTsmJ-4" edge="1">
          <mxGeometry width="50" height="50" relative="1" as="geometry">
            <mxPoint x="3938" y="258" as="sourcePoint" />
            <mxPoint x="4079.178005064048" y="174.93196961570743" as="targetPoint" />
          </mxGeometry>
        </mxCell>
        <mxCell id="BABA2aiOpULebvutTsmJ-13" value="&lt;font style=&quot;font-size: 12px;&quot;&gt;Meteorite Impact&lt;/font&gt;" style="ellipse;whiteSpace=wrap;html=1;aspect=fixed;strokeWidth=2;strokeColor=#b85450;fillColor=#ffffff;dashed=1;" parent="1" vertex="1">
          <mxGeometry x="3790" y="300" width="50" height="50" as="geometry" />
        </mxCell>
        <mxCell id="BABA2aiOpULebvutTsmJ-14" value="Interact" style="ellipse;whiteSpace=wrap;html=1;aspect=fixed;strokeWidth=2;strokeColor=#b85450;fillColor=#ffffff;dashed=1;" parent="1" vertex="1">
          <mxGeometry x="3865" y="350" width="50" height="50" as="geometry" />
        </mxCell>
        <mxCell id="BABA2aiOpULebvutTsmJ-15" value="&lt;font style=&quot;font-size: 12px;&quot;&gt;Dust&lt;/font&gt;" style="ellipse;whiteSpace=wrap;html=1;aspect=fixed;strokeWidth=2;strokeColor=#b85450;fillColor=#ffffff;dashed=1;" parent="1" vertex="1">
          <mxGeometry x="3770" y="210" width="50" height="50" as="geometry" />
        </mxCell>
        <mxCell id="BABA2aiOpULebvutTsmJ-16" value="" style="endArrow=classic;html=1;rounded=0;strokeColor=#B85450;dashed=1;dashPattern=8 8;strokeWidth=2;" parent="1" source="BABA2aiOpULebvutTsmJ-14" target="BABA2aiOpULebvutTsmJ-9" edge="1">
          <mxGeometry width="50" height="50" relative="1" as="geometry">
            <mxPoint x="3979" y="410" as="sourcePoint" />
            <mxPoint x="3984" y="380" as="targetPoint" />
          </mxGeometry>
        </mxCell>
        <mxCell id="BABA2aiOpULebvutTsmJ-17" value="" style="endArrow=classic;html=1;rounded=0;strokeColor=#B85450;dashed=1;dashPattern=8 8;strokeWidth=2;" parent="1" source="BABA2aiOpULebvutTsmJ-13" target="BABA2aiOpULebvutTsmJ-9" edge="1">
          <mxGeometry width="50" height="50" relative="1" as="geometry">
            <mxPoint x="3856" y="412" as="sourcePoint" />
            <mxPoint x="3879" y="398" as="targetPoint" />
          </mxGeometry>
        </mxCell>
        <mxCell id="BABA2aiOpULebvutTsmJ-18" value="" style="endArrow=classic;html=1;rounded=0;strokeColor=#B85450;dashed=1;dashPattern=8 8;strokeWidth=2;" parent="1" source="BABA2aiOpULebvutTsmJ-15" target="BABA2aiOpULebvutTsmJ-9" edge="1">
          <mxGeometry width="50" height="50" relative="1" as="geometry">
            <mxPoint x="3844" y="319" as="sourcePoint" />
            <mxPoint x="3870" y="296" as="targetPoint" />
          </mxGeometry>
        </mxCell>
        <mxCell id="BABA2aiOpULebvutTsmJ-19" value="" style="endArrow=classic;html=1;rounded=0;strokeWidth=2;" parent="1" source="BABA2aiOpULebvutTsmJ-4" target="BABA2aiOpULebvutTsmJ-1" edge="1">
          <mxGeometry width="50" height="50" relative="1" as="geometry">
            <mxPoint x="4017" y="196" as="sourcePoint" />
            <mxPoint x="4022" y="169" as="targetPoint" />
          </mxGeometry>
        </mxCell>
        <mxCell id="gSLX7bVf2hEw5dxdex8d-1" value="&lt;div style=&quot;text-align: center;&quot;&gt;&lt;font style=&quot;font-size: 48px;&quot;&gt;Cold Plates&lt;/font&gt;&lt;/div&gt;" style="text;whiteSpace=wrap;html=1;fillColor=none;" parent="1" vertex="1">
          <mxGeometry x="4040" y="330" width="155" height="40" as="geometry" />
        </mxCell>
      </root>
    </mxGraphModel>
  </diagram>
</mxfile>
